<?xml version="1.0" encoding="utf-8"?>
<!-- Generator: Adobe Illustrator 18.0.0, SVG Export Plug-In . SVG Version: 6.00 Build 0)  -->
<!DOCTYPE svg PUBLIC "-//W3C//DTD SVG 1.1//EN" "http://www.w3.org/Graphics/SVG/1.1/DTD/svg11.dtd">
<svg version="1.1" xmlns="http://www.w3.org/2000/svg" xmlns:xlink="http://www.w3.org/1999/xlink" x="0px" y="0px"
	 viewBox="0 0 698 389.8" enable-background="new 0 0 698 389.8" xml:space="preserve">
<g id="Background">
</g>
<g id="Objects">
	<g>
		<g>
			<path d="M88,213.9l39.3-11.2l29.8,11.2l-13.7-39.3l42.6,11.2l54.5,8.4c0,0,17.1-19.6,24.4-19.6c7.3,0,43.9,19.6,43.9,19.6
				l21.9-30.8l31.7-18.7l31.7,26.2l29.3-3.7l14.6-22.4l41.4,13.1l17.1-35.5l39,9.3V90.6h41.4l24.4-24.3V34.5l42.8,24.3V0H57v201.8
				L88,213.9z"/>
			<path d="M625.6,239.2l-12.2,40.3l-48.8-27.7c-12.2,14.4-68.3,0-68.3,0l-26.8-30.4L433,251.8L385.5,227l-34.9-1.9v35.5l-56.5-8.8
				l-2.4,27.7h-43.9h-49l-16.6,24.1l-54.9-11.2l-13,40.6l-15,13.5L57,363.5v26.4h587.1V252.2L625.6,239.2z"/>
		</g>
		<polygon points="615.8,54.3 656,78.8 622.2,108.3 		"/>
		<polygon points="547.3,104.8 606.6,75.3 596.6,114.6 		"/>
		<polygon points="547.3,117.4 547.3,162.9 577,157.3 		"/>
		<polygon points="606.6,267.2 562.1,213.9 592,207 		"/>
		<polygon points="615.8,234.3 656,186 684.3,207 		"/>
		<polygon points="656,108.3 684.3,130 678.8,108.3 		"/>
		<polygon points="62.1,349.9 0,324.7 31.1,305.8 		"/>
		<polygon points="52.1,213.9 0,251.8 26,251.8 		"/>
		<polygon points="47.5,292.5 68.5,317.7 81.3,296 		"/>
		<polygon points="73.1,340.8 96.8,282.7 112.4,292.5 		"/>
		<path d="M122.4,282.7c-0.9,0.7-29.7-15.5-29.7-15.5l41.6-11.9L122.4,282.7z"/>
		<polygon points="73.1,282.7 47.5,255.3 73.1,239.9 		"/>
		<polygon points="64.4,224.5 105.1,251.8 113.5,234.3 		"/>
		<polygon points="155.3,287.6 172.7,292.5 184.6,282.7 		"/>
		<polygon points="141.6,279.6 141.6,249 169.9,251.8 		"/>
		<polygon points="203.7,269 292.4,238.2 276.8,274.3 		"/>
		<polygon points="299.7,228.7 311.5,245.5 326.2,237.1 		"/>
		<polygon points="340.8,202.1 335.3,255.3 326.2,216.8 		"/>
		<path d="M81.3,218.2c0,0.7,95.9,0,95.9,0L138,232.9L81.3,218.2z"/>
		<polygon points="155.8,186 160.8,207 184.6,196.5 		"/>
		<polygon points="149.8,245.5 184.6,196.5 220.2,207 		"/>
		<polygon points="185,239.9 244.9,218.2 233,234.3 		"/>
		<polygon points="177.2,251.8 155.3,282.7 261.3,237.1 		"/>
		<polygon points="220.2,196.5 273.2,196.5 227.5,232.9 		"/>
		<polygon points="284.1,193 340.8,193 299.7,213.9 		"/>
		<polygon points="261.3,224.5 280.5,202.1 284.1,232.9 		"/>
		<polygon points="359.1,155.9 350.5,193 381,186 		"/>
		<polygon points="437.6,155.9 441.3,217.5 448.6,210.2 		"/>
		<path d="M392.9,180.4c3.7-0.7,37.5-11.2,37.5-11.2l-29.2,44.7L392.9,180.4z"/>
		<polygon points="358.1,202.1 381,191.6 381,210.2 		"/>
		<polygon points="404.7,229.1 424.8,239.9 430.3,232.9 		"/>
		<polygon points="369.6,218.2 437.6,207 434,221 		"/>
		<polygon points="500.7,135.6 465.9,174.4 497,179 		"/>
		<polygon points="457.7,186.7 524.4,174.4 483.3,193 		"/>
		<polygon points="473.3,207 536.3,179 509.8,207 		"/>
		<polygon points="524.4,146.8 529,224.5 547.3,179 		"/>
		<polygon points="562.1,121.6 584.4,119.1 577,196.5 		"/>
		<polygon points="491.1,221 553.7,202.1 491.1,234.5 		"/>
		<polygon points="500.7,239.9 524.4,251.8 562.1,239.9 		"/>
		<polygon points="541.8,224.5 573.2,245.9 553.7,217.5 		"/>
		<polygon points="562.1,193 606.6,150.3 606.6,165.7 		"/>
		<polygon points="606.6,125.1 621.3,150.3 627.7,144 		"/>
		<polygon points="600.2,191.6 615.8,171.6 617.1,183.7 		"/>
		<polygon points="644.1,162.9 666.9,157.8 655.5,171.6 		"/>
		<polygon points="640.4,130 655.5,153.1 670.1,146.8 		"/>
		<polygon points="608.7,207 635.9,179 632.2,200.9 		"/>
		<polygon points="640.4,237.1 666.9,259.9 670.1,248.5 		"/>
		<polygon points="47.5,196.5 19.2,169.2 19.2,181.6 		"/>
		<polygon points="655.3,60.6 655.3,25.6 684.3,31.2 		"/>
		<polygon points="666.9,69.7 698,65.5 684.3,81.3 		"/>
		<polygon points="662.4,269 662.4,296 677.9,292.5 		"/>
		<polygon points="13.7,353.4 33.3,356.9 19.2,364.6 		"/>
		<g>
			<polygon points="411.6,157.3 417.5,108.3 448.6,119.1 			"/>
			<path fill="#FFFFFF" d="M410.9,158.7l0.2-1.4l6-49.6l32.3,11.3l-0.4,0.4L410.9,158.7z M418,108.8l-5.7,47.1l35.5-36.6L418,108.8z
				"/>
		</g>
		<g>
			<polygon points="287.4,164.7 307,179 322.2,157.8 			"/>
			<path fill="#FFFFFF" d="M307.1,179.6l-20.7-15.1l36.9-7.3L307.1,179.6z M288.5,164.9l18.4,13.4l14.3-19.9L288.5,164.9z"/>
		</g>
		<g>
			<polygon points="225.2,186.7 200.8,179 237.4,179 			"/>
			<path fill="#FFFFFF" d="M225.3,187.1l-27.1-8.5h40.7L225.3,187.1z M203.4,179.4l21.7,6.8l10.8-6.8H203.4z"/>
		</g>
		<g>
			<polygon points="98.9,196.5 86,150.3 98.9,150.3 			"/>
			<path fill="#FFFFFF" d="M99.4,200.3l-14-50.4h14V200.3z M86.7,150.7l11.7,42.1v-42.1H86.7z"/>
		</g>
		<g>
			<polygon points="388.1,140.1 400.9,155.9 403.6,141.5 			"/>
			<path fill="#FFFFFF" d="M401.3,157l-14.1-17.4l17.1,1.5L401.3,157z M389.1,140.6l11.5,14.1l2.4-12.9L389.1,140.6z"/>
		</g>
		<g>
			<polygon points="473.3,128.5 491.1,92 531.4,84.5 			"/>
			<path fill="#FFFFFF" d="M471.9,130l18.7-38.4l0.3,0l42.1-7.8l-1.3,1L471.9,130z M491.5,92.3l-16.9,34.6l55.1-41.7L491.5,92.3z"/>
		</g>
		<g>
			<polygon points="557.5,73.4 562.1,81.3 566.9,73.4 			"/>
			<path fill="#FFFFFF" d="M562.1,82.2l-5.4-9.2h11L562.1,82.2z M558.3,73.8l3.8,6.5l4-6.5H558.3z"/>
		</g>
		<g>
			<polygon points="307.6,264.3 289.9,305.1 312.5,297.8 			"/>
			<path fill="#FFFFFF" d="M289,305.8l18.8-43.3l5.2,35.6L289,305.8z M307.3,266.1l-16.6,38.2l21.2-6.8L307.3,266.1z"/>
		</g>
		<g>
			<polygon points="208.3,287.6 261.3,287.6 194.7,302.5 			"/>
			<path fill="#FFFFFF" d="M193.4,303.2l14.6-16h56.9L193.4,303.2z M208.6,288l-12.6,13.8l61.7-13.8H208.6z"/>
		</g>
		<g>
			<polygon points="134.3,305.8 124.5,346.9 141.6,342.7 			"/>
			<path fill="#FFFFFF" d="M123.8,347.5l0.2-0.7l10.4-43.5l7.8,39.6L123.8,347.5z M134.3,308.2l-9.1,38.2l15.9-3.9L134.3,308.2z"/>
		</g>
		<g>
			<polygon points="149.8,305.1 159.9,326.4 169.9,317.7 			"/>
			<path fill="#FFFFFF" d="M159.7,327.1l-11-23.3l22,13.8L159.7,327.1z M151,306.3l9.1,19.3l9.1-7.9L151,306.3z"/>
		</g>
		<g>
			<polygon points="362.5,237.1 358.1,269 369.6,267.2 			"/>
			<path fill="#FFFFFF" d="M357.5,269.5l0.1-0.5l4.7-34.7l7.8,33.2L357.5,269.5z M362.6,239.9l-3.9,28.6l10.2-1.6L362.6,239.9z"/>
		</g>
		<g>
			<polygon points="468.7,234.5 435.1,264.3 448.6,264.3 			"/>
			<path fill="#FFFFFF" d="M448.9,264.7H434l37.2-33L448.9,264.7z M436.2,263.9h12l17.9-26.6L436.2,263.9z"/>
		</g>
		<g>
			<polygon points="378.4,239.9 386.3,256.2 395.9,249.4 			"/>
			<path fill="#FFFFFF" d="M386.1,256.9l-8.8-18l19.4,10.5L386.1,256.9z M379.4,241l7.1,14.5l8.5-6.1L379.4,241z"/>
		</g>
		<g>
			<polygon points="566.9,264.3 597.4,287.6 566.9,274.3 			"/>
			<path fill="#FFFFFF" d="M600.6,289.4l-34.1-14.9v-11.1L600.6,289.4z M567.5,274l26.9,11.7l-26.9-20.5V274z"/>
		</g>
		<g>
			<polygon points="507.7,261.3 483.3,269 507.7,269 			"/>
			<path fill="#FFFFFF" d="M508.3,269.4h-27.6l27.6-8.7V269.4z M485.9,268.6h21.3v-6.7L485.9,268.6z"/>
		</g>
	</g>
</g>
<g id="Designed_by_freepik">
</g>
</svg>
