<svg width="150" height="55" viewBox="0 0 150 55" fill="none" xmlns="http://www.w3.org/2000/svg">
<g clip-path="url(#clip0)">
<path fill-rule="evenodd" clip-rule="evenodd" d="M0.05 51.3588V53.9088H11.3V51.3588L6.45 50.8088V37.2588H12L12.65 41.6588H14.65V30.6088H12.65L12 34.3088H6.45V20.1088H14.45L15.5 26.0588H17.8L17.5 17.1088H0V19.8588L2.7 20.4588V50.8088L0.05 51.3588Z" fill="#C3C0BF"/>
<path fill-rule="evenodd" clip-rule="evenodd" d="M21.9 38.1588C21.9 41.8088 22.2 44.8088 22.9 47.1088C23.55 49.4088 24.6 51.1588 26 52.2588C27.4 53.3588 29.2 53.9088 31.4 53.9088C33.15 53.9088 34.65 53.3588 36 52.2588C37.3 51.1588 38.35 49.4588 39.1 47.2088C39.85 44.9588 40.25 42.1088 40.25 38.7088V20.4588L42.6 19.8588V17.1088H34.9V19.8588L37.55 20.4588V38.9088C37.55 42.8088 37.05 45.7588 36.1 47.8088C35.1 49.9088 33.7 50.9588 31.8 50.9588C29.9 50.9588 28.4 50.0088 27.35 48.1088C26.3 46.2088 25.8 43.0588 25.8 38.6588V20.4588L28.55 19.8588V17.1088H19.6V19.8588L21.9 20.4588V38.1588Z" fill="#C3C0BF"/>
<path fill-rule="evenodd" clip-rule="evenodd" d="M117.6 35.6088H115.6C114.85 35.6088 114.3 35.6088 113.95 35.5588V21.0088L114.45 20.9088C115.15 20.7088 115.9 20.5588 116.75 20.5588C118.65 20.5588 120.05 21.2088 120.85 22.4588C121.65 23.7088 122.05 25.4588 122.05 27.7088C122.05 30.3588 121.65 32.3588 120.9 33.6588C120.05 35.0088 119 35.6088 117.6 35.6088ZM107.45 51.8088V54.4088H117.15V51.8088L113.95 51.3088V38.4588H117.85C118.4 38.9588 118.95 39.9588 119.5 41.4088C120.05 42.8588 120.7 44.8588 121.5 47.4088C122.2 49.8088 122.8 51.6088 123.25 52.7088C123.7 53.8588 124.1 54.4088 124.45 54.4088H129.25V51.8588L128 51.2588C127.65 51.1588 127.25 50.6088 126.9 49.7588C126.55 48.9088 126 47.5088 125.35 45.7088C124.8 44.2088 124.35 43.0088 123.95 42.0088C123.55 41.0588 123.15 40.1588 122.7 39.3088C122.25 38.4588 121.8 37.8588 121.35 37.4588C122.35 37.0088 123.2 36.2588 123.95 35.2088C124.65 34.1588 125.25 32.9588 125.6 31.5588C126 30.1588 126.2 28.7088 126.2 27.2088C126.2 25.0088 125.9 23.2088 125.3 21.8088C124.7 20.4088 123.75 19.3588 122.45 18.6588C121.15 17.9588 119.4 17.6088 117.2 17.6088H114.6H113.6H112.1H107.65V20.9088L110.2 21.5088V51.3088L107.45 51.8088Z" fill="#C3C0BF"/>
<path fill-rule="evenodd" clip-rule="evenodd" d="M130.65 52.0088V54.4088H149.05L150 45.6588L147.95 44.7088L146.1 51.4088H137.2V37.2088H142.45L142.95 40.9088H145V29.8588H142.95L142.45 34.2588H137.2V20.5588H144.95L145.95 25.3088H148.05L147.55 17.6088H130.7V20.3588L133.35 21.0088V51.5088L130.65 52.0088Z" fill="#C3C0BF"/>
<path fill-rule="evenodd" clip-rule="evenodd" d="M50.05 44.5587H48.9C48.45 44.5587 48.15 44.5587 47.95 44.5087V38.9587L48.25 38.9087C48.65 38.8087 49.1 38.7587 49.6 38.7587C50.7 38.7587 51.5 39.0087 51.95 39.4587C52.4 39.9587 52.65 40.6087 52.65 41.4587C52.65 42.4587 52.4 43.2087 52 43.7087C51.45 44.3087 50.85 44.5587 50.05 44.5587ZM44.15 50.7087V51.7087H49.75V50.7087L47.9 50.5087V45.6087H50.15C50.45 45.8087 50.8 46.1587 51.1 46.7587C51.4 47.3087 51.8 48.0587 52.25 49.0587C52.65 49.9587 53 50.6587 53.25 51.1087C53.5 51.5587 53.75 51.7587 53.95 51.7587H56.7V50.7587L55.95 50.5587C55.75 50.5087 55.55 50.3087 55.3 49.9587C55.1 49.6087 54.8 49.1087 54.4 48.4087C54.1 47.8587 53.8 47.3587 53.6 47.0087C53.4 46.6587 53.15 46.3087 52.9 46.0087C52.65 45.7087 52.4 45.4587 52.1 45.3087C52.7 45.1087 53.2 44.8587 53.6 44.4587C54 44.0587 54.35 43.6087 54.55 43.0587C54.75 42.5087 54.9 41.9587 54.9 41.4087C54.9 40.5587 54.75 39.9087 54.4 39.3587C54.05 38.8087 53.5 38.4087 52.75 38.1587C52 37.9087 51 37.7587 49.7 37.7587H48.2H47.6H46.75H44.2V38.9087L45.7 39.1587V50.5087L44.15 50.7087Z" fill="#C3C0BF"/>
<path fill-rule="evenodd" clip-rule="evenodd" d="M57.6 50.7088V51.7088H62.35V50.7088L60.55 50.4588V39.9588L62 42.4588L68.45 51.7088H70V38.9588L71.55 38.7088V37.6588H66.9V38.7088L68.6 38.9088V48.5588L67.6 46.7588L61.3 37.6588H57.6V38.7088L59.15 38.9588V50.5088L57.6 50.7088Z" fill="#C3C0BF"/>
<path fill-rule="evenodd" clip-rule="evenodd" d="M73.05 50.7088V51.7088H78.7V50.7088L77 50.4588V38.9088L78.7 38.7088V37.6588H73.05V38.7088L74.8 38.9588V50.4588L73.05 50.7088Z" fill="#C3C0BF"/>
<path fill-rule="evenodd" clip-rule="evenodd" d="M82.7 50.7088V51.7088H90.05V50.7088L87.45 50.4588V38.8088H90.4L91.15 42.7088H92.45L92.15 37.6588H80.3L80 42.7088H81.35L82.05 38.8088H85.15V50.4588L82.7 50.7088Z" fill="#C3C0BF"/>
<path fill-rule="evenodd" clip-rule="evenodd" d="M94.85 45.7088C94.85 47.1088 95.05 48.2588 95.45 49.1088C95.85 50.0088 96.45 50.6588 97.25 51.0588C98.05 51.4588 99.1 51.7088 100.4 51.7088C101.4 51.7088 102.3 51.5088 103.1 51.0588C103.85 50.6588 104.5 50.0088 104.9 49.1588C105.35 48.3088 105.55 47.2088 105.55 45.9088V38.9088L106.95 38.6588V37.6088H102.45V38.6588L104 38.9088V45.9588C104 47.4588 103.7 48.5588 103.15 49.3588C102.6 50.1588 101.75 50.5588 100.65 50.5588C99.5 50.5588 98.65 50.2088 98.05 49.4588C97.45 48.7088 97.15 47.5088 97.15 45.8588V38.9088L98.75 38.6588V37.6088H93.5V38.6588L94.85 38.9088V45.7088Z" fill="#C3C0BF"/>
<path fill-rule="evenodd" clip-rule="evenodd" d="M45.8 34.3087V35.3087H53.15V34.3087L50.5 34.1087V22.4087H53.5L54.2 26.3087H55.55L55.25 21.2587H43.4L43.05 26.3087H44.4L45.15 22.4087H48.25V34.1087L45.8 34.3087Z" fill="#C3C0BF"/>
<path fill-rule="evenodd" clip-rule="evenodd" d="M57.9 29.3087C57.9 30.7087 58.1 31.8587 58.5 32.7087C58.9 33.6087 59.5 34.2587 60.3 34.6587C61.1 35.0587 62.15 35.3087 63.45 35.3087C64.45 35.3087 65.35 35.1087 66.15 34.7087C66.95 34.3087 67.55 33.6587 67.95 32.8087C68.4 31.9587 68.6 30.8587 68.6 29.5587V22.5587L70 22.3087V21.2587H65.5V22.3087L67.05 22.5587V29.6087C67.05 31.1087 66.75 32.2087 66.2 33.0087C65.65 33.8087 64.8 34.2087 63.7 34.2087C62.55 34.2087 61.7 33.8587 61.1 33.1087C60.5 32.3587 60.2 31.1587 60.2 29.5087V22.5587L61.8 22.3087V21.2587H56.6V22.3087L57.95 22.5587V29.3087H57.9Z" fill="#C3C0BF"/>
<path d="M87.85 39.2088C98.6472 39.2088 107.4 30.5231 107.4 19.8088C107.4 9.09443 98.6472 0.408752 87.85 0.408752C77.0529 0.408752 68.3 9.09443 68.3 19.8088C68.3 30.5231 77.0529 39.2088 87.85 39.2088Z" fill="#222222"/>
<path fill-rule="evenodd" clip-rule="evenodd" d="M89.75 28.7588C89.2 29.1588 88.55 29.4588 87.8 29.6588C87.1 29.8588 86.4 29.9088 85.7 29.9088C84.5 29.9088 83.5 29.7088 82.7 29.2588C81.9 28.8088 81.25 28.2588 80.85 27.5588C80.45 26.8588 80.25 26.1088 80.25 25.2088C80.25 24.3588 80.45 23.5588 80.9 22.9088C81.3 22.2088 81.9 21.5588 82.65 20.9088C85.75 24.6088 88.1 27.2088 89.75 28.7588ZM84.65 17.8588C83.95 17.1088 83.4 16.3588 82.95 15.6088C82.5 14.8088 82.25 13.9588 82.25 13.0088C82.25 12.4088 82.4 11.8588 82.65 11.3588C82.9 10.8588 83.3 10.4588 83.75 10.1588C84.2 9.85878 84.7 9.70878 85.25 9.70878C86.3 9.70878 87 10.0088 87.4 10.5588C87.8 11.1088 88 11.7588 88 12.4588C88 13.2588 87.9 13.9588 87.65 14.5088C87.45 15.1088 87.1 15.6588 86.6 16.1588C86.1 16.6588 85.45 17.2588 84.65 17.8588ZM91.2 18.2088V20.2088L93.75 20.6088C93.75 20.9088 93.8 21.2088 93.8 21.5588C93.8 22.4588 93.65 23.3088 93.45 24.1588C93.2 25.0088 92.85 25.8088 92.35 26.5088L91.65 25.8088C90.9 25.0588 89.9 24.0588 88.75 22.7088C87.55 21.3588 86.55 20.2088 85.7 19.1588C87 18.3588 87.95 17.6588 88.65 17.1088C89.35 16.5588 89.9 15.8588 90.4 15.0588C90.85 14.2588 91.1 13.2588 91.1 12.1088C91.1 11.4088 90.9 10.7088 90.45 10.0588C90 9.40878 89.35 8.85878 88.5 8.45878C87.6 8.05878 86.55 7.80878 85.3 7.80878C84.1 7.80878 83 8.05878 82 8.55878C81 9.05878 80.2 9.70878 79.65 10.5088C79.1 11.3588 78.8 12.2088 78.8 13.2088C78.8 14.2588 79.05 15.3588 79.6 16.4588C80.1 17.6088 80.75 18.6588 81.6 19.6588C80.15 20.4588 79 21.3588 78.15 22.3088C77.3 23.2588 76.85 24.4088 76.85 25.7588C76.85 27.0588 77.2 28.2088 77.9 29.1088C78.6 30.0588 79.6 30.7588 80.9 31.2088C82.2 31.7088 83.75 31.9088 85.5 31.9088C86.45 31.9088 87.45 31.7588 88.5 31.5088C89.55 31.2588 90.5 30.7588 91.3 30.1588C92.1 30.8088 92.75 31.2588 93.35 31.5588C93.95 31.8588 94.65 31.9588 95.45 31.9588C95.8 31.9588 96.25 31.9088 96.75 31.8588C97.25 31.7588 97.65 31.7088 97.85 31.5588V29.9588C97.05 29.9088 96.35 29.7088 95.75 29.3588C95.15 29.0088 94.5 28.5588 93.8 27.9588C94.55 27.1088 95.2 26.0588 95.7 24.7588C96.2 23.4588 96.4 22.1088 96.4 20.6588L98.95 20.2588V18.2588H91.2V18.2088Z" fill="white"/>
<path d="M104.85 53.9088H42.65V54.4088H104.85V53.9088Z" fill="#C3C1BF"/>
</g>
<defs>
<clipPath id="clip0">
<rect width="150" height="54" fill="white" transform="translate(0 0.408752)"/>
</clipPath>
</defs>
</svg>
