<svg width="260" height="191" viewBox="0 0 260 191" fill="none" xmlns="http://www.w3.org/2000/svg">
<path fill-rule="evenodd" clip-rule="evenodd" d="M152.197 129.334C154.416 129.334 156.002 128.384 156.953 126.801C158.221 125.217 158.538 122.684 158.538 119.201C158.538 116.351 157.904 114.134 156.953 112.867C156.002 111.601 154.099 110.967 151.563 110.967C149.977 110.967 148.709 111.284 148.075 111.601V129.334C148.392 129.334 148.709 129.334 149.66 129.651H152.197V129.334ZM180.733 150.551L185.807 149.917V111.917L180.733 110.651V105.584H219.099L220.05 117.934H214.026L211.489 110.651H199.758V127.117H206.416L207.685 121.417H212.758V139.467H207.685L206.416 132.817H199.758V150.551L212.441 149.601L216.88 141.367L223.538 142.951L221.953 155.617H180.733V150.551ZM129.685 150.551L134.758 149.917V112.867L130.002 111.917V105.584H141.416H146.49H153.148C158.221 105.584 162.026 105.901 165.197 106.851C168.05 107.801 170.27 109.067 171.538 110.967C172.807 112.867 173.441 115.401 173.441 118.567C173.441 120.467 173.124 122.051 172.49 123.951C171.855 125.851 170.904 127.434 169.319 128.701C167.733 130.284 166.148 131.234 163.929 131.867C165.514 132.501 167.099 133.451 168.368 134.717C169.636 135.984 170.587 137.251 171.538 138.834C172.172 140.417 173.124 142.001 174.075 144.217C174.709 146.117 175.343 147.384 175.977 148.017C176.611 148.967 176.929 149.284 177.563 149.601L179.148 150.234V155.301H164.563C163.929 155.301 163.294 154.667 162.66 153.084C162.026 151.501 161.075 149.601 160.124 146.434C159.172 143.901 158.538 142.001 157.904 140.417C157.27 138.834 156.636 137.567 156.002 136.301C155.368 135.034 154.416 134.401 153.465 134.084H148.709V149.284L154.416 149.917V154.984H130.002V150.551H129.685ZM81.4895 135.667V112.234L77.3676 111.284V105.584H101.465V111.284L95.7578 112.234V136.617C95.7578 146.117 98.9285 150.551 105.27 150.551C108.441 150.551 110.977 149.284 112.246 146.751C113.831 144.217 114.465 140.734 114.465 136.617V112.234L108.758 111.284V105.584H127.465V111.284L123.343 112.234V135.984C123.343 142.951 121.441 148.017 117.953 151.184C114.465 154.351 109.709 155.934 103.368 155.934C96.0749 155.934 90.6846 154.351 86.8798 151.184C83.0749 147.701 81.4895 142.634 81.4895 135.667ZM35.5139 150.234L40.5871 149.284V112.234L35.1968 111.284V105.584H74.5139L75.4651 119.201H68.4895L65.3188 111.917L54.5383 110.967V128.384H61.831L63.4163 121.417H68.8066V140.734H63.4163L61.831 133.767H54.5383V149.284L64.6846 150.234V155.301H35.5139V150.234ZM0.00170898 129.967C0.00170898 151.817 5.39195 172.401 14.9041 190.451H244.782C254.294 172.401 259.685 151.817 259.685 129.967C260.002 58.4008 201.66 0.450806 130.002 0.450806C58.3432 0.450806 0.00170898 58.4008 0.00170898 129.967Z" fill="white" fill-opacity="0.9"/>
</svg>
