<?xml version="1.0" encoding="utf-8"?>
<!-- Generator: Adobe Illustrator 18.0.0, SVG Export Plug-In . SVG Version: 6.00 Build 0)  -->
<!DOCTYPE svg PUBLIC "-//W3C//DTD SVG 1.1//EN" "http://www.w3.org/Graphics/SVG/1.1/DTD/svg11.dtd">
<svg version="1.1" id="Слой_1" xmlns="http://www.w3.org/2000/svg" xmlns:xlink="http://www.w3.org/1999/xlink" x="0px" y="0px"
	 viewBox="0 0 32 32" enable-background="new 0 0 32 32" xml:space="preserve">
<path fill="#333333" d="M0,16C0,7.2,7.2,0,16,0l0,0c8.8,0,16,7.2,16,16l0,0c0,8.8-7.2,16-16,16l0,0C7.2,32,0,24.8,0,16L0,16z"/>
<path fill="none" stroke="#949494" d="M7.7,24.4l1-3.7l0.1-0.2l-0.1-0.2C7.9,19,7.5,17.5,7.5,16c0-4.7,3.8-8.5,8.5-8.5
	c4.7,0,8.5,3.8,8.5,8.5s-3.8,8.5-8.5,8.5c-1.5,0-2.9-0.4-4.2-1.1l-0.2-0.1l-0.2,0.1L7.7,24.4z"/>
</svg>
