<?xml version="1.0" encoding="utf-8"?>
<!-- Generator: Adobe Illustrator 18.0.0, SVG Export Plug-In . SVG Version: 6.00 Build 0)  -->
<!DOCTYPE svg PUBLIC "-//W3C//DTD SVG 1.1//EN" "http://www.w3.org/Graphics/SVG/1.1/DTD/svg11.dtd">
<svg version="1.1" id="Слой_1" xmlns="http://www.w3.org/2000/svg" xmlns:xlink="http://www.w3.org/1999/xlink" x="0px" y="0px"
	 viewBox="0 0 32 32" enable-background="new 0 0 32 32" xml:space="preserve">
<circle fill="#333333" cx="16" cy="16" r="16"/>
<path fill="#949494" d="M8.6,9.7h14.7c0.9,0,1.6,0.7,1.6,1.6v9.4c0,0.9-0.7,1.6-1.6,1.6H8.6c-0.9,0-1.6-0.7-1.6-1.6v-9.4
	C7.1,10.4,7.8,9.7,8.6,9.7z M8.9,10.8c0.3,0.3,5.8,5.8,6,6c0.3,0.3,0.7,0.5,1.1,0.5s0.8-0.2,1.1-0.5c0.1-0.1,5.6-5.6,6-6H8.9z
	 M23.9,20.5v-9L19.4,16L23.9,20.5z M23.1,21.2l-4.5-4.5l-0.8,0.8c-0.5,0.5-1.2,0.8-1.9,0.8c-0.7,0-1.4-0.3-1.9-0.8l-0.8-0.8
	l-4.5,4.5H23.1z M8.1,20.5l4.5-4.5l-4.5-4.5V20.5z"/>
</svg>
