<?xml version="1.0" encoding="utf-8"?>
<!-- Generator: Adobe Illustrator 18.0.0, SVG Export Plug-In . SVG Version: 6.00 Build 0)  -->
<!DOCTYPE svg PUBLIC "-//W3C//DTD SVG 1.1//EN" "http://www.w3.org/Graphics/SVG/1.1/DTD/svg11.dtd">
<svg version="1.1" id="Слой_1" xmlns="http://www.w3.org/2000/svg" xmlns:xlink="http://www.w3.org/1999/xlink" x="0px" y="0px"
	 viewBox="0 0 32 32" enable-background="new 0 0 32 32" xml:space="preserve">
<circle fill="#333333" cx="16" cy="16" r="16"/>
<path fill="#949494" d="M21.6,9.6H10.4C10.2,9.6,10,9.8,10,10c0,0.2,0.2,0.4,0.4,0.4h11.1c0.2,0,0.4-0.2,0.4-0.4
	C22,9.8,21.8,9.6,21.6,9.6z"/>
<path fill="#949494" d="M16,22.4c-0.4,0-0.8,0.4-0.8,0.8c0,0.4,0.4,0.8,0.8,0.8c0.4,0,0.8-0.4,0.8-0.8S16.4,22.4,16,22.4z"/>
<path fill="#949494" d="M16.8,8.1h-1.6c-0.2,0-0.4,0.2-0.4,0.4c0,0.2,0.2,0.4,0.4,0.4h1.6c0.2,0,0.4-0.2,0.4-0.4S17,8.1,16.8,8.1z"
	/>
<path fill="#949494" d="M20,6.5H12c-1.1,0-2,0.9-2,2v15.1c0,1.1,0.9,2,2,2H20c1.1,0,2-0.9,2-2V8.5C22,7.4,21.1,6.5,20,6.5z
	 M21.2,23.5c0,0.7-0.5,1.2-1.2,1.2H12c-0.7,0-1.2-0.5-1.2-1.2V8.5c0-0.7,0.5-1.2,1.2-1.2H20c0.7,0,1.2,0.5,1.2,1.2V23.5L21.2,23.5z"
	/>
<path fill="#949494" d="M21.6,20.8H10.4c-0.2,0-0.4,0.2-0.4,0.4c0,0.2,0.2,0.4,0.4,0.4h11.1c0.2,0,0.4-0.2,0.4-0.4
	C22,20.9,21.8,20.8,21.6,20.8z"/>
</svg>
