<svg width="41" height="41" viewBox="0 0 41 41" fill="none" xmlns="http://www.w3.org/2000/svg">
<path d="M20.8 40.8478C31.8457 40.8478 40.8 31.8935 40.8 20.8478C40.8 9.80214 31.8457 0.847839 20.8 0.847839C9.75435 0.847839 0.800049 9.80214 0.800049 20.8478C0.800049 31.8935 9.75435 40.8478 20.8 40.8478Z" fill="#222222"/>
<path d="M25.5617 9.76147H16.643C13.0183 9.76147 10.0695 12.7103 10.0695 16.335V25.2537C10.0695 28.8783 13.0183 31.8272 16.643 31.8272H25.5617C29.1863 31.8272 32.1352 28.8783 32.1352 25.2537V16.335C32.1351 12.7103 29.1863 9.76147 25.5617 9.76147ZM29.9154 25.2537C29.9154 27.6581 27.9661 29.6074 25.5617 29.6074H16.643C14.2385 29.6074 12.2893 27.6581 12.2893 25.2537V16.335C12.2893 13.9305 14.2385 11.9813 16.643 11.9813H25.5617C27.9661 11.9813 29.9154 13.9305 29.9154 16.335V25.2537Z" fill="white"/>
<path d="M21.1024 15.0869C17.9555 15.0869 15.3954 17.6471 15.3954 20.7939C15.3954 23.9406 17.9555 26.5008 21.1024 26.5008C24.2492 26.5008 26.8093 23.9407 26.8093 20.7939C26.8093 17.647 24.2492 15.0869 21.1024 15.0869ZM21.1024 24.2811C19.1764 24.2811 17.6152 22.7198 17.6152 20.7939C17.6152 18.868 19.1765 17.3067 21.1024 17.3067C23.0283 17.3067 24.5895 18.868 24.5895 20.7939C24.5895 22.7198 23.0282 24.2811 21.1024 24.2811Z" fill="white"/>
<path d="M26.8205 16.4977C27.5756 16.4977 28.1877 15.8855 28.1877 15.1304C28.1877 14.3753 27.5756 13.7632 26.8205 13.7632C26.0654 13.7632 25.4532 14.3753 25.4532 15.1304C25.4532 15.8855 26.0654 16.4977 26.8205 16.4977Z" fill="white"/>
</svg>
