<?xml version="1.0" encoding="utf-8"?>
<!-- Generator: Adobe Illustrator 18.0.0, SVG Export Plug-In . SVG Version: 6.00 Build 0)  -->
<!DOCTYPE svg PUBLIC "-//W3C//DTD SVG 1.1//EN" "http://www.w3.org/Graphics/SVG/1.1/DTD/svg11.dtd">
<svg version="1.1" id="Слой_1" xmlns="http://www.w3.org/2000/svg" xmlns:xlink="http://www.w3.org/1999/xlink" x="0px" y="0px"
	 viewBox="201 -1.3 561.1 561.1" enable-background="new 201 -1.3 561.1 561.1" xml:space="preserve">
<path fill="#FFC107" d="M480.2,532.7c140,0,252-112,252-252s-112-252-252-252s-252,112-252,252C228.2,420.7,343,532.7,480.2,532.7z"
	/>
<path d="M211.4,353.5c39.2,148.4,196,238,344.4,196c148.4-39.2,238-196,196-344.4s-196-238-344.4-196S169.4,205.1,211.4,353.5z
	 M245,345.1c-36.4-131.6,42-266,170.8-302.4c131.6-36.4,266,42,302.4,170.8c22.4,86.8-2.8,173.6-58.8,232.4L413,513.1
	C334.6,493.5,267.4,431.9,245,345.1z"/>
<path d="M483,76.3l16.8,47.6L455,135.1l28,98l61.6-16.8l22.4,53.2l-56,28l33.6,81.2l64.4-11.2l25.2,61.6l-201.6,56l-53.2-380.8
	L483,76.3z"/>
</svg>
