<svg width="50" height="40" viewBox="0 0 50 40" fill="none" xmlns="http://www.w3.org/2000/svg">
<path fill-rule="evenodd" clip-rule="evenodd" d="M27.214 3.17578C27.214 3.17578 17.1454 3.17578 16.8549 3.69487C16.5645 4.21395 12.1111 2.38189 11.5302 6.59563C10.9816 10.8399 9.01303 12.672 10.1425 14.8094C11.272 16.9468 10.433 19.0536 10.433 21.4353C10.433 23.817 15.7577 33.0994 16.0159 33.8933C16.145 34.2903 15.79 34.2292 15.79 34.1987C15.79 34.1681 16.145 34.1681 17.694 34.6872C20.7597 35.7559 28.053 35.4811 28.053 35.4811L39.2511 33.3743C39.2511 33.3743 42.6073 25.6796 42.0587 22.7788C41.5101 19.8781 38.7025 10.3208 38.7025 10.3208L29.4407 3.96967L27.214 3.17578Z" fill="white"/>
<path fill-rule="evenodd" clip-rule="evenodd" d="M25.8906 16.4275C30.1504 17.374 36.6046 18.8397 36.6046 25.5573C36.6046 28.855 34.8942 31.3893 31.7639 32.6718C29.5372 33.5878 27.0201 33.7099 24.8256 33.7099C18.1455 33.7099 13.9179 28.7939 13.7566 28.5802C12.6594 27.2672 12.8853 25.374 14.2729 24.3359C15.6606 23.2977 17.6291 23.5115 18.7264 24.8244C18.7264 24.8244 21.2758 27.5725 24.8256 27.6947C29.1177 27.7863 30.1181 26.5649 30.2472 25.5267C30.4085 24.2748 29.2145 23.3282 24.4384 22.2595C20.3722 21.3435 14.2729 19.9695 14.2729 13.771C14.2729 11.8473 15.112 5.55725 25.7615 5.55725C32.4739 5.55725 36.4432 10.5649 36.6046 10.7786C37.6373 12.1221 37.3468 14.0153 35.9269 14.9924C34.507 15.9695 32.5384 15.6947 31.5057 14.3817C31.4412 14.2901 29.1499 11.9084 25.7615 11.6031C23.1798 11.3588 20.6304 12.2443 20.6304 13.5573C20.5981 14.9313 21.3403 15.3893 25.8906 16.4275ZM47.3832 23.4809C46.6087 22.4733 46.2537 21.2519 46.2537 20V19.9695C46.2537 8.94657 36.7982 0 25.116 0C22.5666 0 20.114 0.427481 17.855 1.22137C16.6287 1.64885 15.3056 1.74046 14.047 1.40458C12.9498 1.09924 11.7558 0.977099 10.5295 1.0687C5.33381 1.37405 1.2031 5.37405 0.912656 10.2595C0.783572 12.5802 1.52581 14.7481 2.84893 16.4886C3.62344 17.4962 3.97842 18.7176 3.97842 19.9695V20C3.97842 31.0534 13.4339 40 25.116 40C27.6655 40 30.1181 39.5725 32.3771 38.7786C33.6034 38.3511 34.9588 38.2595 36.1851 38.5954C37.2823 38.9008 38.4763 39.0229 39.7026 38.9313C44.866 38.5954 49.029 34.5954 49.2872 29.7099C49.4485 27.3893 48.7063 25.2214 47.3832 23.4809Z" fill="#222222"/>
</svg>
