<svg width="43" height="40" viewBox="0 0 43 40" fill="none" xmlns="http://www.w3.org/2000/svg">
<path d="M21.174 40C32.7719 40 42.174 31.0457 42.174 20C42.174 8.9543 32.7719 0 21.174 0C9.57597 0 0.17395 8.9543 0.17395 20C0.17395 31.0457 9.57597 40 21.174 40Z" fill="#222222"/>
<path d="M9.36028 19.3633L14.2338 21.099L16.1202 26.8876C16.2409 27.2584 16.716 27.3954 17.0314 27.1494L19.7479 25.0362C20.0327 24.8148 20.4383 24.8038 20.7359 25.0099L25.6357 28.4043C25.973 28.6383 26.451 28.4619 26.5356 28.0729L30.1249 11.5983C30.2173 11.1734 29.7797 10.819 29.3557 10.9754L9.35457 18.3379C8.86098 18.5195 8.86528 19.1863 9.36028 19.3633ZM15.8162 20.1751L25.3409 14.5775C25.5121 14.4772 25.6882 14.698 25.5412 14.8281L17.6805 21.8003C17.4042 22.0457 17.226 22.3742 17.1755 22.7306L16.9078 24.6241C16.8723 24.8769 16.5001 24.902 16.427 24.6573L15.3972 21.2045C15.2792 20.8107 15.4511 20.3901 15.8162 20.1751Z" fill="white"/>
</svg>
