<svg width="43" height="40" viewBox="0 0 43 40" fill="none" xmlns="http://www.w3.org/2000/svg">
<path d="M21.9565 40C33.5545 40 42.9565 31.0457 42.9565 20C42.9565 8.9543 33.5545 0 21.9565 0C10.3586 0 0.956543 8.9543 0.956543 20C0.956543 31.0457 10.3586 40 21.9565 40Z" fill="#222222"/>
<path d="M33.8075 14.2956L33.8002 14.2676C33.2107 11.979 30.5532 9.52323 28.1127 9.01232L28.0851 9.00688C24.1377 8.28368 20.1352 8.28368 16.1886 9.00688L16.1603 9.01232C13.7205 9.52323 11.063 11.979 10.4727 14.2676L10.4662 14.2956C9.73749 17.4917 9.73749 20.7329 10.4662 23.929L10.4727 23.957C11.0378 26.1479 13.4975 28.4908 15.8469 29.1352V31.6899C15.8469 32.6145 17.0202 33.0686 17.6874 32.4014L20.3826 29.7109C20.9671 29.7423 21.552 29.7598 22.1369 29.7598C24.124 29.7598 26.1118 29.5794 28.0851 29.2178L28.1127 29.2123C30.5532 28.7014 33.2107 26.2456 33.8002 23.9571L33.8075 23.9291C34.5363 20.7329 34.5363 17.4917 33.8075 14.2956ZM31.6747 23.4655C31.2812 24.9586 29.2633 26.8148 27.66 27.1577C25.5611 27.541 23.4456 27.7049 21.3322 27.6487C21.2902 27.6476 21.2498 27.6632 21.2205 27.6921C20.9206 27.9878 19.2526 29.6322 19.2526 29.6322L17.1595 31.6953C17.0064 31.8485 16.7376 31.7443 16.7376 31.5327V27.3007C16.7376 27.2308 16.6856 27.1714 16.6141 27.1579C16.6137 27.1578 16.6133 27.1577 16.6129 27.1577C15.0096 26.8147 12.9926 24.9585 12.5983 23.4654C11.9424 20.5765 11.9424 17.6479 12.5983 14.759C12.9926 13.2659 15.0096 11.4097 16.6129 11.0668C20.2785 10.3972 23.9952 10.3972 27.66 11.0668C29.2641 11.4097 31.2812 13.2659 31.6747 14.759C32.3313 17.648 32.3313 20.5766 31.6747 23.4655Z" fill="white"/>
<path d="M25.6245 25.4189C25.378 25.347 25.1431 25.2987 24.925 25.2118C22.6645 24.3111 20.5842 23.1492 18.9363 21.368C17.9992 20.3551 17.2657 19.2116 16.6457 18.0014C16.3517 17.4275 16.1039 16.8312 15.8514 16.2387C15.6211 15.6984 15.9603 15.1402 16.3174 14.7331C16.6526 14.351 17.0839 14.0586 17.5509 13.8432C17.9154 13.675 18.275 13.7719 18.5413 14.0687C19.1168 14.7102 19.6455 15.3846 20.0736 16.1283C20.3369 16.5857 20.2646 17.1448 19.7875 17.4561C19.6716 17.5317 19.5659 17.6205 19.4579 17.706C19.3632 17.7809 19.274 17.8566 19.2091 17.958C19.0904 18.1435 19.0847 18.3623 19.1611 18.5641C19.7495 20.1168 20.7412 21.3243 22.3686 21.9746C22.629 22.0787 22.8905 22.1998 23.1905 22.1662C23.6929 22.1098 23.8556 21.5806 24.2077 21.3041C24.5518 21.0338 24.9916 21.0303 25.3623 21.2555C25.7331 21.4809 26.0925 21.7228 26.4498 21.9673C26.8004 22.2073 27.1496 22.4421 27.4731 22.7156C27.7841 22.9787 27.8912 23.3238 27.7161 23.6808C27.3954 24.3347 26.9289 24.8786 26.2558 25.2258C26.0658 25.3238 25.8388 25.3555 25.6245 25.4189C25.378 25.3469 25.8388 25.3555 25.6245 25.4189ZM22.143 13.0955C25.0998 13.1751 27.5282 15.0595 28.0486 17.8668C28.1373 18.3451 28.1689 18.8342 28.2083 19.3197C28.2249 19.5239 28.1045 19.7179 27.875 19.7206C27.638 19.7233 27.5314 19.5328 27.516 19.3287C27.4856 18.9246 27.4644 18.5188 27.4064 18.1181C27.1004 16.0028 25.3441 14.2528 23.1517 13.8773C22.8218 13.8208 22.4842 13.8059 22.15 13.7722C21.9387 13.7509 21.6621 13.7386 21.6153 13.4865C21.576 13.275 21.7618 13.1067 21.9715 13.0959C22.0285 13.0928 22.0858 13.0953 22.143 13.0955C25.0998 13.1751 22.0858 13.0953 22.143 13.0955Z" fill="white"/>
<path d="M26.6364 18.6899C26.6316 18.7254 26.629 18.8087 26.6073 18.8873C26.5289 19.1723 26.0788 19.208 25.9752 18.9203C25.9445 18.8349 25.9399 18.7378 25.9397 18.6459C25.9387 18.0445 25.8026 17.4437 25.4868 16.9204C25.1621 16.3826 24.6662 15.9304 24.0845 15.6569C23.7327 15.4915 23.3523 15.3887 22.9668 15.3274C22.7983 15.3006 22.628 15.2844 22.4587 15.2618C22.2535 15.2344 22.144 15.1088 22.1537 14.9146C22.1627 14.7327 22.3012 14.6018 22.5077 14.613C23.1862 14.65 23.8416 14.7908 24.4449 15.0976C25.6716 15.7215 26.3724 16.7063 26.5769 18.0213C26.5861 18.0809 26.601 18.1399 26.6057 18.1997C26.6173 18.3474 26.6246 18.4952 26.6364 18.6899C26.6316 18.7254 26.6246 18.4952 26.6364 18.6899Z" fill="white"/>
<path d="M24.7973 18.6211C24.5499 18.6254 24.4175 18.4939 24.392 18.2761C24.3743 18.1242 24.3603 17.9703 24.3226 17.8225C24.2482 17.5315 24.0872 17.2619 23.8323 17.0836C23.7119 16.9993 23.5756 16.938 23.4327 16.8984C23.2513 16.8481 23.0629 16.8619 22.8818 16.8193C22.6852 16.773 22.5765 16.6202 22.6074 16.443C22.6355 16.2818 22.7988 16.156 22.9822 16.1687C24.1285 16.2482 24.9478 16.8174 25.0648 18.1134C25.073 18.2048 25.0827 18.3015 25.0616 18.389C25.0254 18.5387 24.9099 18.6138 24.7973 18.6211C24.5499 18.6254 24.9099 18.6138 24.7973 18.6211Z" fill="white"/>
</svg>
