<svg width="41" height="41" viewBox="0 0 41 41" fill="none" xmlns="http://www.w3.org/2000/svg">
<path d="M20.5999 0.847839C31.6462 0.847839 40.6 9.80283 40.6 20.8479C40.6 31.893 31.6462 40.8478 20.5999 40.8478C9.5536 40.8478 0.599976 31.8928 0.599976 20.8479C0.599976 9.80297 9.55373 0.847839 20.5999 0.847839Z" fill="#222222"/>
<path d="M20.1174 17.0991C20.7498 17.0991 21.2449 16.8978 21.6074 16.6117C21.9674 16.3241 22.1474 15.933 22.1474 15.4304V12.3979C22.1474 11.9516 21.9637 11.5828 21.5974 11.2991C21.2286 11.0153 20.7574 10.8742 20.1798 10.8742C19.5486 10.8742 19.0436 11.0079 18.6699 11.2766C18.2949 11.5466 18.1073 11.9066 18.1073 12.3629V15.4053C18.1073 15.9052 18.2898 16.3003 18.6548 16.5966C19.0197 16.8929 19.5087 17.0991 20.1174 17.0991ZM19.4562 12.5105C19.4562 12.3954 19.5162 12.303 19.635 12.2293C19.755 12.158 19.91 12.123 20.1001 12.123C20.3075 12.123 20.4751 12.158 20.6014 12.2293C20.7289 12.303 20.7914 12.3955 20.7914 12.5105V15.3929C20.7914 15.5355 20.7289 15.6479 20.6038 15.7292C20.4789 15.8092 20.3114 15.8504 20.1001 15.8504C19.8938 15.8504 19.7339 15.8117 19.6225 15.7304C19.5125 15.6516 19.4562 15.5392 19.4562 15.3929V12.5105ZM24.3025 17.0954C24.5249 17.0954 24.7512 16.9678 24.9863 16.8404C25.2238 16.7104 25.4499 16.5204 25.6676 16.2729V16.9467H26.8488V10.8654H25.6676V15.4816C25.5576 15.6129 25.4351 15.7216 25.3038 15.8079C25.1701 15.8929 25.0601 15.9367 24.9739 15.9367C24.8627 15.9367 24.7814 15.9054 24.7339 15.8392C24.6839 15.7755 24.6564 15.6717 24.6564 15.5291V10.8666H23.4777V15.9479C23.4777 16.3104 23.5489 16.5817 23.6851 16.7617C23.8237 16.9428 24.0287 17.0954 24.3025 17.0954ZM27.7375 19.6092H13.4624C11.1924 19.6092 9.35364 21.378 9.35364 23.5568V26.8943C9.35364 29.0743 11.1924 30.8431 13.4624 30.8431H27.7373C30.006 30.8431 31.8461 29.0743 31.8461 26.8943V23.5568C31.8462 21.3778 30.0062 19.6092 27.7375 19.6092ZM15.5861 22.9967H14.3237V28.2242H13.1025V22.9967H11.84V22.1054H15.5863C15.5861 22.1054 15.5861 22.9967 15.5861 22.9967ZM19.3537 28.2967H18.0374V27.7542C17.7925 27.9543 17.5412 28.1079 17.2762 28.2105C17.0149 28.318 16.7599 28.3692 16.5125 28.3692C16.2076 28.3692 15.98 28.2955 15.825 28.1468C15.6725 28.0006 15.5938 27.7806 15.5938 27.4868V23.3593H16.91V27.1455C16.91 27.2631 16.9375 27.3456 16.9901 27.3981C17.0476 27.4517 17.1388 27.4755 17.2614 27.4755C17.3564 27.4755 17.4814 27.4417 17.6288 27.3717C17.7775 27.3029 17.9139 27.2154 18.0376 27.1067V23.3579H19.3538C19.3537 23.3579 19.3537 28.2967 19.3537 28.2967ZM24.3361 27.3567C24.3361 27.6805 24.2335 27.9267 24.0299 28.1005C23.8286 28.2742 23.5312 28.3592 23.1474 28.3592C22.8912 28.3592 22.6637 28.3267 22.4661 28.2605C22.2675 28.1943 22.0799 28.0917 21.9099 27.9504V28.3004H20.5962V22.1054H21.9099V24.1017C22.0874 23.9643 22.2736 23.8568 22.4674 23.7843C22.6661 23.7105 22.8661 23.6755 23.0674 23.6755C23.4786 23.6755 23.7924 23.7718 24.0086 23.9655C24.2274 24.1605 24.3361 24.4468 24.3361 24.8205C24.3361 24.8204 24.3361 27.3567 24.3361 27.3567ZM29.3437 25.9629H26.9187V26.8554C26.9187 27.1042 26.9587 27.2767 27.0424 27.3742C27.1274 27.4704 27.2712 27.5179 27.4725 27.5179C27.685 27.5179 27.83 27.4767 27.915 27.3954C27.9975 27.3129 28.0426 27.1341 28.0426 26.8542V26.6392H29.3463V26.8816C29.3463 27.3666 29.19 27.7317 28.8675 27.9779C28.55 28.2228 28.075 28.3453 27.4438 28.3453C26.875 28.3453 26.4276 28.2153 26.1013 27.9554C25.7763 27.6979 25.6113 27.3379 25.6113 26.8829V24.7553C25.6113 24.3466 25.7913 24.0091 26.1513 23.7504C26.5101 23.4929 26.9701 23.3641 27.5388 23.3641C28.1188 23.3641 28.565 23.4841 28.8775 23.7229C29.1888 23.9617 29.3438 24.3066 29.3438 24.7542C29.3437 24.7542 29.3437 25.9629 29.3437 25.9629ZM14.8787 17.113H16.37V13.4792L18.1062 8.35419H16.59L15.6674 11.8567H15.5724L14.6049 8.35419H13.1011L14.8786 13.643C14.8787 13.643 14.8787 17.113 14.8787 17.113ZM22.4536 24.4004L22.1774 24.4454L21.9087 24.5842V27.4317C22.0137 27.5054 22.1174 27.5617 22.2175 27.5929L22.5312 27.6416C22.6912 27.6416 22.8075 27.6103 22.8824 27.5441C22.9562 27.4804 22.9949 27.3754 22.9949 27.2316V24.8704C22.9949 24.7141 22.9511 24.5978 22.8587 24.5191C22.7637 24.4405 22.6299 24.4004 22.4536 24.4004Z" fill="white"/>
<path d="M27.5426 24.1929C27.34 24.1929 27.1963 24.2355 27.1076 24.323C27.0201 24.4067 26.9775 24.5492 26.9775 24.7479V25.2255H28.0988V24.7479C28.0988 24.5492 28.0525 24.408 27.965 24.323C27.8787 24.2355 27.7351 24.1929 27.5426 24.1929Z" fill="white"/>
</svg>
