<svg width="42" height="40" viewBox="0 0 42 40" fill="none" xmlns="http://www.w3.org/2000/svg">
<path d="M21 40C32.598 40 42 31.0457 42 20C42 8.9543 32.598 0 21 0C9.40202 0 0 8.9543 0 20C0 31.0457 9.40202 40 21 40Z" fill="#222222"/>
<path d="M9.73083 31.0127L11.3907 25.3981C10.3233 23.671 9.76132 21.7061 9.76132 19.6875C9.76132 13.4723 15.0706 8.41577 21.5967 8.41577C28.1227 8.41577 33.4319 13.4723 33.4319 19.6875C33.4319 25.9028 28.1227 30.9592 21.5967 30.9592C19.5632 30.9592 17.572 30.4635 15.8106 29.5222L9.73083 31.0127ZM16.1214 27.4716L16.4837 27.6823C18.0194 28.5752 19.7875 29.0472 21.5967 29.0472C27.0156 29.0472 31.4242 24.8484 31.4242 19.6875C31.4242 14.5266 27.0156 10.3278 21.5967 10.3278C16.1777 10.3278 11.769 14.5266 11.769 19.6875C11.769 21.4858 12.3056 23.232 13.3208 24.7375L13.5647 25.0993L12.6089 28.3327L16.1214 27.4716Z" fill="white"/>
<path d="M18.272 14.4417L17.5041 14.4018C17.2628 14.3893 17.0262 14.4661 16.8439 14.6169C16.4716 14.9248 15.8763 15.5201 15.6934 16.2958C15.4208 17.4525 15.8422 18.8688 16.9328 20.2852C18.0234 21.7015 20.0558 23.9677 23.6497 24.9355C24.8079 25.2474 25.7189 25.0371 26.4218 24.6089C26.9785 24.2698 27.3623 23.7254 27.5006 23.11L27.6232 22.5646C27.6622 22.3912 27.5697 22.2153 27.4007 22.1411L24.8052 21.0017C24.6367 20.9278 24.4369 20.9745 24.3236 21.1144L23.3046 22.3724C23.2277 22.4674 23.0959 22.5051 22.977 22.4653C22.2792 22.2317 19.9418 21.2994 18.6593 18.9466C18.6037 18.8445 18.6175 18.7207 18.6964 18.6337L19.6702 17.5608C19.7697 17.4512 19.7948 17.2972 19.735 17.1641L18.6162 14.6712C18.5567 14.5385 18.4232 14.4496 18.272 14.4417Z" fill="white"/>
</svg>
